<svg width="14" height="13" viewBox="0 0 14 13" fill="none" xmlns="http://www.w3.org/2000/svg">
<path d="M7.01426 12.9001C10.5489 12.9001 13.4143 10.0347 13.4143 6.5001C13.4143 2.96548 10.5489 0.100098 7.01426 0.100098C3.47964 0.100098 0.614258 2.96548 0.614258 6.5001C0.614258 10.0347 3.47964 12.9001 7.01426 12.9001Z" fill="#E95420"/>
<path d="M3.71426 6.5001C3.71426 7.0001 3.31426 7.3001 2.91426 7.3001C2.41426 7.3001 2.11426 6.9001 2.11426 6.5001C2.11426 6.0001 2.51426 5.7001 2.91426 5.7001C3.31426 5.7001 3.71426 6.0001 3.71426 6.5001ZM8.41426 10.5001C8.61426 10.8001 9.11426 11.0001 9.51426 10.8001C9.91426 10.6001 10.0143 10.1001 9.81426 9.7001C9.51426 9.2001 9.01426 9.1001 8.71426 9.3001C8.31426 9.6001 8.11426 10.1001 8.41426 10.5001ZM9.81426 3.3001C10.0143 2.9001 9.91426 2.4001 9.51426 2.2001C9.11426 2.0001 8.61426 2.1001 8.41426 2.5001C8.11426 2.9001 8.31426 3.4001 8.71426 3.6001C9.01426 3.8001 9.51426 3.7001 9.81426 3.3001ZM7.01426 4.1001C8.21426 4.1001 9.21426 5.0001 9.31426 6.2001H10.5143C10.5143 5.4001 10.1143 4.6001 9.51426 4.0001C9.21426 4.1001 8.81426 4.1001 8.51426 3.9001C8.21426 3.7001 8.01426 3.4001 7.91426 3.1001C7.61426 3.0001 7.31426 3.0001 7.01426 3.0001C6.41426 3.0001 5.91426 3.1001 5.41426 3.3001L6.01426 4.3001C6.31426 4.2001 6.71426 4.1001 7.01426 4.1001ZM4.71426 6.5001C4.71426 5.7001 5.11426 5.0001 5.71426 4.6001L5.11426 3.6001C4.31426 4.0001 3.81426 4.7001 3.61426 5.6001C3.91426 5.8001 4.01426 6.1001 4.01426 6.5001C4.01426 6.9001 3.81426 7.2001 3.61426 7.4001C3.81426 8.2001 4.31426 9.0001 5.01426 9.4001L5.61426 8.4001C5.11426 8.0001 4.71426 7.3001 4.71426 6.5001ZM7.01426 8.8001C6.61426 8.8001 6.31426 8.7001 6.01426 8.6001L5.41426 9.6001C5.91426 9.8001 6.41426 10.0001 7.01426 10.0001C7.31426 10.0001 7.61426 10.0001 7.91426 9.9001C8.01426 9.5001 8.21426 9.2001 8.51426 9.0001C8.81426 8.8001 9.21426 8.8001 9.51426 8.9001C10.1143 8.3001 10.5143 7.5001 10.5143 6.6001H9.31426C9.21426 7.9001 8.21426 8.8001 7.01426 8.8001Z" fill="white"/>
</svg>
